<svg width="11" height="13" viewBox="0 0 11 13" fill="none" xmlns="http://www.w3.org/2000/svg">
<path d="M5.5 6.5C7.23594 6.5 8.64286 5.04512 8.64286 3.25C8.64286 1.45488 7.23594 0 5.5 0C3.76406 0 2.35714 1.45488 2.35714 3.25C2.35714 5.04512 3.76406 6.5 5.5 6.5ZM7.7 7.3125H7.28996C6.74487 7.57148 6.13839 7.71875 5.5 7.71875C4.86161 7.71875 4.25759 7.57148 3.71004 7.3125H3.3C1.47812 7.3125 0 8.84102 0 10.725V11.7812C0 12.4541 0.527902 13 1.17857 13H9.82143C10.4721 13 11 12.4541 11 11.7812V10.725C11 8.84102 9.52187 7.3125 7.7 7.3125Z" fill="#555454"/>
</svg>
