<svg width="15" height="15" viewBox="0 0 15 15" fill="none" xmlns="http://www.w3.org/2000/svg">
<path d="M11.5625 5.875C12.9087 5.875 14 4.78369 14 3.4375C14 2.09131 12.9087 1 11.5625 1C10.2163 1 9.125 2.09131 9.125 3.4375C9.125 4.78369 10.2163 5.875 11.5625 5.875Z" stroke="#555454" stroke-width="1.5" stroke-linecap="round" stroke-linejoin="round"/>
<path d="M3.4375 14C4.78369 14 5.875 12.9087 5.875 11.5625C5.875 10.2163 4.78369 9.125 3.4375 9.125C2.09131 9.125 1 10.2163 1 11.5625C1 12.9087 2.09131 14 3.4375 14Z" stroke="#555454" stroke-width="1.5" stroke-linecap="round" stroke-linejoin="round"/>
<path d="M9.125 9.125H14V13.1875C14 13.403 13.9144 13.6097 13.762 13.762C13.6097 13.9144 13.403 14 13.1875 14H9.9375C9.72201 14 9.51535 13.9144 9.36298 13.762C9.2106 13.6097 9.125 13.403 9.125 13.1875V9.125ZM1 1H5.875V5.0625C5.875 5.27799 5.7894 5.48465 5.63702 5.63702C5.48465 5.7894 5.27799 5.875 5.0625 5.875H1.8125C1.59701 5.875 1.39035 5.7894 1.23798 5.63702C1.0856 5.48465 1 5.27799 1 5.0625V1Z" stroke="#555454" stroke-width="1.5" stroke-linecap="round" stroke-linejoin="round"/>
</svg>
